<svg xmlns="http://www.w3.org/2000/svg" xmlns:xlink="http://www.w3.org/1999/xlink" width="96" zoomAndPan="magnify" viewBox="0 0 72 72" height="96" preserveAspectRatio="xMidYMid meet" version="1.0"><defs><g/><clipPath id="6222d643f6"><rect x="0" width="48" y="0" height="32"/></clipPath><clipPath id="3051acbbec"><rect x="0" width="31" y="0" height="42"/></clipPath></defs><g fill="#000000" fill-opacity="1"><g transform="translate(7.2, 35.853948)"><g><path d="M 3.375 -31.34375 L 13.4375 -31.34375 L 13.4375 -8.015625 L 29.515625 -8.015625 L 29.515625 0 L 3.375 0 Z M 3.375 -31.34375 "/></g></g></g><g fill="#000000" fill-opacity="1"><g transform="translate(21.802435, 35.853948)"><g><path d="M 3.375 -31.34375 L 13.4375 -31.34375 L 13.4375 -8.015625 L 29.515625 -8.015625 L 29.515625 0 L 3.375 0 Z M 3.375 -31.34375 "/></g></g></g><g transform="matrix(1, 0, 0, 1, 24, 7)"><g clip-path="url(#6222d643f6)"><g fill="#000000" fill-opacity="1"><g transform="translate(40.314583, 30.868447)"><g><path d="M -24.59375 -15.15625 C -24.59375 -19.375 -23.519531 -22.691406 -21.375 -25.109375 C -19.238281 -27.523438 -16.117188 -28.734375 -12.015625 -28.734375 C -7.921875 -28.734375 -4.800781 -27.523438 -2.65625 -25.109375 C -0.519531 -22.691406 0.546875 -19.375 0.546875 -15.15625 C 0.546875 -10.9375 -0.515625 -7.628906 -2.640625 -5.234375 C -4.765625 -2.835938 -7.890625 -1.640625 -12.015625 -1.640625 C -16.148438 -1.640625 -19.28125 -2.835938 -21.40625 -5.234375 C -23.53125 -7.628906 -24.59375 -10.9375 -24.59375 -15.15625 Z M -18.4375 -15.15625 C -18.4375 -12.1875 -16.722656 -10.703125 -13.296875 -10.703125 L -10.703125 -10.703125 C -7.296875 -10.703125 -5.59375 -12.1875 -5.59375 -15.15625 C -5.59375 -18.164062 -7.296875 -19.671875 -10.703125 -19.671875 L -13.296875 -19.671875 C -16.722656 -19.671875 -18.4375 -18.164062 -18.4375 -15.15625 Z M -18.4375 -15.15625 "/></g></g></g></g></g><g fill="#000000" fill-opacity="1"><g transform="translate(10.35, 68.253945)"><g><path d="M 22.8125 0 L 12.75 0 L 12.75 -12.15625 L 0.3125 -31.34375 L 11.890625 -31.34375 L 17.90625 -20.90625 L 18.078125 -20.90625 L 24.09375 -31.34375 L 35.078125 -31.34375 L 22.8125 -12.15625 Z M 22.8125 0 "/></g></g></g><g transform="matrix(1, 0, 0, 1, 36, 30)"><g clip-path="url(#3051acbbec)"><g fill="#000000" fill-opacity="1"><g transform="translate(1.525744, 38.699292)"><g><path d="M 19.515625 0 L 18.765625 -3.296875 C 17.066406 -0.742188 14.609375 0.53125 11.390625 0.53125 C 8.253906 0.53125 5.832031 -0.492188 4.125 -2.546875 C 2.425781 -4.597656 1.578125 -7.628906 1.578125 -11.640625 C 1.578125 -15.628906 2.425781 -18.640625 4.125 -20.671875 C 5.832031 -22.710938 8.253906 -23.734375 11.390625 -23.734375 C 14.054688 -23.734375 16.222656 -22.835938 17.890625 -21.046875 L 17.890625 -31.859375 L 26.640625 -31.859375 L 26.640625 0 Z M 14.109375 -17.28125 C 11.585938 -17.28125 10.328125 -15.769531 10.328125 -12.75 L 10.328125 -10.421875 C 10.328125 -7.429688 11.585938 -5.9375 14.109375 -5.9375 C 15.398438 -5.9375 16.367188 -6.390625 17.015625 -7.296875 C 17.660156 -8.203125 17.984375 -9.390625 17.984375 -10.859375 L 17.984375 -12.3125 C 17.984375 -13.769531 17.660156 -14.960938 17.015625 -15.890625 C 16.367188 -16.816406 15.398438 -17.28125 14.109375 -17.28125 Z M 14.109375 -17.28125 "/></g></g></g></g></g></svg>